<mxfile host="Electron" modified="2024-10-04T23:29:43.688Z" agent="Mozilla/5.0 (Windows NT 10.0; Win64; x64) AppleWebKit/537.36 (KHTML, like Gecko) draw.io/24.2.5 Chrome/120.0.6099.109 Electron/28.1.0 Safari/537.36" etag="tbZhuZUPkGa4Hqb6yi7H" version="24.2.5" type="device">
  <diagram name="Página-1" id="gx38G2qUwWzkEVqAyIuV">
    <mxGraphModel dx="472" dy="868" grid="1" gridSize="10" guides="1" tooltips="1" connect="1" arrows="1" fold="1" page="1" pageScale="1" pageWidth="827" pageHeight="1169" math="0" shadow="0">
      <root>
        <mxCell id="0" />
        <mxCell id="1" parent="0" />
        <mxCell id="MDvxbZTULNSSr8DBJNU8-1" value="Matrix" style="swimlane;fontStyle=1;align=center;verticalAlign=top;childLayout=stackLayout;horizontal=1;startSize=26;horizontalStack=0;resizeParent=1;resizeParentMax=0;resizeLast=0;collapsible=1;marginBottom=0;whiteSpace=wrap;html=1;" parent="1" vertex="1">
          <mxGeometry x="110" y="250" width="160" height="180" as="geometry" />
        </mxCell>
        <mxCell id="MDvxbZTULNSSr8DBJNU8-2" value="- matrix&lt;div&gt;- row&lt;/div&gt;&lt;div&gt;-col&lt;/div&gt;" style="text;strokeColor=none;fillColor=none;align=left;verticalAlign=top;spacingLeft=4;spacingRight=4;overflow=hidden;rotatable=0;points=[[0,0.5],[1,0.5]];portConstraint=eastwest;whiteSpace=wrap;html=1;" parent="MDvxbZTULNSSr8DBJNU8-1" vertex="1">
          <mxGeometry y="26" width="160" height="54" as="geometry" />
        </mxCell>
        <mxCell id="MDvxbZTULNSSr8DBJNU8-3" value="" style="line;strokeWidth=1;fillColor=none;align=left;verticalAlign=middle;spacingTop=-1;spacingLeft=3;spacingRight=3;rotatable=0;labelPosition=right;points=[];portConstraint=eastwest;strokeColor=inherit;" parent="MDvxbZTULNSSr8DBJNU8-1" vertex="1">
          <mxGeometry y="80" width="160" height="8" as="geometry" />
        </mxCell>
        <mxCell id="MDvxbZTULNSSr8DBJNU8-4" value="+ Matrix(T[][] matrix)&lt;br&gt;+ getRows()&lt;div&gt;+ getCols()&lt;/div&gt;&lt;div&gt;+ get(row,col)&lt;/div&gt;&lt;div&gt;+ iterator()&lt;/div&gt;" style="text;strokeColor=none;fillColor=none;align=left;verticalAlign=top;spacingLeft=4;spacingRight=4;overflow=hidden;rotatable=0;points=[[0,0.5],[1,0.5]];portConstraint=eastwest;whiteSpace=wrap;html=1;" parent="MDvxbZTULNSSr8DBJNU8-1" vertex="1">
          <mxGeometry y="88" width="160" height="92" as="geometry" />
        </mxCell>
        <mxCell id="MDvxbZTULNSSr8DBJNU8-19" style="edgeStyle=orthogonalEdgeStyle;rounded=0;orthogonalLoop=1;jettySize=auto;html=1;" parent="1" source="MDvxbZTULNSSr8DBJNU8-5" target="MDvxbZTULNSSr8DBJNU8-7" edge="1">
          <mxGeometry relative="1" as="geometry" />
        </mxCell>
        <mxCell id="MDvxbZTULNSSr8DBJNU8-5" value="«interface»&lt;br&gt;&lt;b&gt;Iterable&amp;lt;T&amp;gt;&lt;/b&gt;&lt;div&gt;&lt;b&gt;iterator()&lt;/b&gt;&lt;/div&gt;" style="html=1;whiteSpace=wrap;" parent="1" vertex="1">
          <mxGeometry x="135" y="60" width="110" height="50" as="geometry" />
        </mxCell>
        <mxCell id="MDvxbZTULNSSr8DBJNU8-6" value="" style="endArrow=block;dashed=1;endFill=0;endSize=12;html=1;rounded=0;exitX=0.5;exitY=0;exitDx=0;exitDy=0;" parent="1" source="MDvxbZTULNSSr8DBJNU8-1" target="MDvxbZTULNSSr8DBJNU8-5" edge="1">
          <mxGeometry width="160" relative="1" as="geometry">
            <mxPoint x="170" y="250" as="sourcePoint" />
            <mxPoint x="330" y="250" as="targetPoint" />
          </mxGeometry>
        </mxCell>
        <mxCell id="MDvxbZTULNSSr8DBJNU8-7" value="«interface»&lt;br&gt;&lt;b&gt;Iterator&amp;lt;T&amp;gt;&lt;br&gt;hasNext()&lt;br&gt;next()&lt;/b&gt;" style="html=1;whiteSpace=wrap;" parent="1" vertex="1">
          <mxGeometry x="400" y="50" width="110" height="70" as="geometry" />
        </mxCell>
        <mxCell id="MDvxbZTULNSSr8DBJNU8-8" value="MatrixIterator" style="swimlane;fontStyle=1;align=center;verticalAlign=top;childLayout=stackLayout;horizontal=1;startSize=26;horizontalStack=0;resizeParent=1;resizeParentMax=0;resizeLast=0;collapsible=1;marginBottom=0;whiteSpace=wrap;html=1;" parent="1" vertex="1">
          <mxGeometry x="355" y="250" width="200" height="180" as="geometry" />
        </mxCell>
        <mxCell id="MDvxbZTULNSSr8DBJNU8-9" value="- matrix&lt;div&gt;- i&lt;/div&gt;&lt;div&gt;- j&lt;/div&gt;" style="text;strokeColor=none;fillColor=none;align=left;verticalAlign=top;spacingLeft=4;spacingRight=4;overflow=hidden;rotatable=0;points=[[0,0.5],[1,0.5]];portConstraint=eastwest;whiteSpace=wrap;html=1;" parent="MDvxbZTULNSSr8DBJNU8-8" vertex="1">
          <mxGeometry y="26" width="200" height="54" as="geometry" />
        </mxCell>
        <mxCell id="MDvxbZTULNSSr8DBJNU8-10" value="" style="line;strokeWidth=1;fillColor=none;align=left;verticalAlign=middle;spacingTop=-1;spacingLeft=3;spacingRight=3;rotatable=0;labelPosition=right;points=[];portConstraint=eastwest;strokeColor=inherit;" parent="MDvxbZTULNSSr8DBJNU8-8" vertex="1">
          <mxGeometry y="80" width="200" height="8" as="geometry" />
        </mxCell>
        <mxCell id="MDvxbZTULNSSr8DBJNU8-11" value="+ MatrixIterator(Matrix&amp;lt;T&amp;gt; matrix)&lt;br&gt;+ hasNext()&lt;div&gt;+ next()&lt;br&gt;&lt;/div&gt;" style="text;strokeColor=none;fillColor=none;align=left;verticalAlign=top;spacingLeft=4;spacingRight=4;overflow=hidden;rotatable=0;points=[[0,0.5],[1,0.5]];portConstraint=eastwest;whiteSpace=wrap;html=1;" parent="MDvxbZTULNSSr8DBJNU8-8" vertex="1">
          <mxGeometry y="88" width="200" height="92" as="geometry" />
        </mxCell>
        <mxCell id="MDvxbZTULNSSr8DBJNU8-12" value="" style="endArrow=block;dashed=1;endFill=0;endSize=12;html=1;rounded=0;exitX=0.5;exitY=0;exitDx=0;exitDy=0;entryX=0.5;entryY=1;entryDx=0;entryDy=0;" parent="1" source="MDvxbZTULNSSr8DBJNU8-8" target="MDvxbZTULNSSr8DBJNU8-7" edge="1">
          <mxGeometry width="160" relative="1" as="geometry">
            <mxPoint x="260" y="250" as="sourcePoint" />
            <mxPoint x="420" y="250" as="targetPoint" />
          </mxGeometry>
        </mxCell>
        <mxCell id="MDvxbZTULNSSr8DBJNU8-13" value="IteratorApp" style="swimlane;fontStyle=1;align=center;verticalAlign=top;childLayout=stackLayout;horizontal=1;startSize=26;horizontalStack=0;resizeParent=1;resizeParentMax=0;resizeLast=0;collapsible=1;marginBottom=0;whiteSpace=wrap;html=1;" parent="1" vertex="1">
          <mxGeometry x="240" y="540" width="160" height="34" as="geometry" />
        </mxCell>
        <mxCell id="MDvxbZTULNSSr8DBJNU8-15" value="" style="line;strokeWidth=1;fillColor=none;align=left;verticalAlign=middle;spacingTop=-1;spacingLeft=3;spacingRight=3;rotatable=0;labelPosition=right;points=[];portConstraint=eastwest;strokeColor=inherit;" parent="MDvxbZTULNSSr8DBJNU8-13" vertex="1">
          <mxGeometry y="26" width="160" height="8" as="geometry" />
        </mxCell>
        <mxCell id="MDvxbZTULNSSr8DBJNU8-17" value="Use" style="endArrow=open;endSize=12;dashed=1;html=1;rounded=0;exitX=0.5;exitY=0;exitDx=0;exitDy=0;" parent="1" source="MDvxbZTULNSSr8DBJNU8-13" target="MDvxbZTULNSSr8DBJNU8-8" edge="1">
          <mxGeometry width="160" relative="1" as="geometry">
            <mxPoint x="260" y="350" as="sourcePoint" />
            <mxPoint x="420" y="350" as="targetPoint" />
          </mxGeometry>
        </mxCell>
        <mxCell id="MDvxbZTULNSSr8DBJNU8-18" value="Use" style="endArrow=open;endSize=12;dashed=1;html=1;rounded=0;" parent="1" source="MDvxbZTULNSSr8DBJNU8-1" target="MDvxbZTULNSSr8DBJNU8-8" edge="1">
          <mxGeometry width="160" relative="1" as="geometry">
            <mxPoint x="260" y="350" as="sourcePoint" />
            <mxPoint x="420" y="350" as="targetPoint" />
          </mxGeometry>
        </mxCell>
        <mxCell id="MDvxbZTULNSSr8DBJNU8-20" value="Use" style="endArrow=open;endSize=12;dashed=1;html=1;rounded=0;" parent="1" source="MDvxbZTULNSSr8DBJNU8-8" target="MDvxbZTULNSSr8DBJNU8-1" edge="1">
          <mxGeometry width="160" relative="1" as="geometry">
            <mxPoint x="270" y="190" as="sourcePoint" />
            <mxPoint x="430" y="190" as="targetPoint" />
          </mxGeometry>
        </mxCell>
        <mxCell id="lO0DSjL6QIt1pBirGvcL-1" value="Use" style="endArrow=open;endSize=12;dashed=1;html=1;rounded=0;exitX=0.45;exitY=-0.029;exitDx=0;exitDy=0;exitPerimeter=0;" edge="1" parent="1" source="MDvxbZTULNSSr8DBJNU8-13" target="MDvxbZTULNSSr8DBJNU8-1">
          <mxGeometry width="160" relative="1" as="geometry">
            <mxPoint x="160" y="540" as="sourcePoint" />
            <mxPoint x="320" y="540" as="targetPoint" />
          </mxGeometry>
        </mxCell>
      </root>
    </mxGraphModel>
  </diagram>
</mxfile>
